<svg xmlns="http://www.w3.org/2000/svg" viewBox="0 0 960 560" font-family="ui-monospace, SFMono-Regular, Menlo, monospace">
  <defs>
    <marker id="arr" viewBox="0 0 10 10" refX="9" refY="5" markerWidth="7" markerHeight="7" orient="auto-start-reverse">
      <path d="M0 0 L10 5 L0 10 z" fill="#c8ff3d"/>
    </marker>
    <marker id="arrdim" viewBox="0 0 10 10" refX="9" refY="5" markerWidth="7" markerHeight="7" orient="auto-start-reverse">
      <path d="M0 0 L10 5 L0 10 z" fill="#ff6738"/>
    </marker>
  </defs>

  <rect width="960" height="560" fill="#090a09"/>
  <text x="32" y="42" fill="#c8ff3d" font-size="17" font-weight="700" letter-spacing="3">BLAST RADIUS · TRUST PIPELINE</text>
  <text x="32" y="62" fill="#9d9a91" font-size="11">every round passes the deterministic gate before display · every model call has a deterministic fallback</text>

  <!-- edge row -->
  <rect x="32" y="88" width="150" height="52" rx="4" fill="#111310" stroke="#3a3f33"/>
  <text x="107" y="110" fill="#f4f1e8" font-size="12" text-anchor="middle" font-weight="700">BROWSER SPA</text>
  <text x="107" y="127" fill="#9d9a91" font-size="10" text-anchor="middle">vanilla JS · no build step</text>

  <rect x="222" y="88" width="150" height="52" rx="4" fill="#111310" stroke="#3a3f33"/>
  <text x="297" y="110" fill="#f4f1e8" font-size="12" text-anchor="middle" font-weight="700">CADDY</text>
  <text x="297" y="127" fill="#9d9a91" font-size="10" text-anchor="middle">TLS · CSP/HSTS · 128KB body cap</text>

  <rect x="412" y="88" width="196" height="52" rx="4" fill="#111310" stroke="#3a3f33"/>
  <text x="510" y="110" fill="#f4f1e8" font-size="12" text-anchor="middle" font-weight="700">FASTAPI</text>
  <text x="510" y="127" fill="#9d9a91" font-size="10" text-anchor="middle">strict DTOs · per-IP+session limits · keyed locks</text>

  <rect x="648" y="88" width="280" height="52" rx="4" fill="#111310" stroke="#3a3f33"/>
  <text x="788" y="110" fill="#f4f1e8" font-size="12" text-anchor="middle" font-weight="700">SQLITE STATE</text>
  <text x="788" y="127" fill="#9d9a91" font-size="10" text-anchor="middle">sessions · atomic daily + per-session LLM budget</text>

  <line x1="182" y1="114" x2="216" y2="114" stroke="#c8ff3d" stroke-width="1.5" marker-end="url(#arr)"/>
  <line x1="372" y1="114" x2="406" y2="114" stroke="#c8ff3d" stroke-width="1.5" marker-end="url(#arr)"/>
  <line x1="608" y1="114" x2="642" y2="114" stroke="#c8ff3d" stroke-width="1.5" marker-end="url(#arr)"/>

  <!-- scenario path group -->
  <rect x="32" y="176" width="896" height="150" rx="6" fill="none" stroke="#465039" stroke-dasharray="none"/>
  <text x="48" y="200" fill="#c8ff3d" font-size="11" font-weight="700" letter-spacing="2">SCENARIO PATH — GROUND TRUTH IS NEVER MODEL-AUTHORED</text>

  <rect x="48" y="216" width="170" height="72" rx="4" fill="#0d0f0c" stroke="#3a3f33"/>
  <text x="133" y="238" fill="#f4f1e8" font-size="12" text-anchor="middle" font-weight="700">VERIFIED BANK</text>
  <text x="133" y="255" fill="#9d9a91" font-size="10" text-anchor="middle">18 curated scenarios</text>
  <text x="133" y="270" fill="#9d9a91" font-size="10" text-anchor="middle">6 families · cited evidence</text>

  <rect x="258" y="216" width="182" height="72" rx="4" fill="#0c1218" stroke="#3d5a7a" stroke-dasharray="5 4"/>
  <text x="349" y="238" fill="#b9dcff" font-size="12" text-anchor="middle" font-weight="700">LUNA RESKIN</text>
  <text x="349" y="255" fill="#8fa7bd" font-size="10" text-anchor="middle">presentation only · flag-gated</text>
  <text x="349" y="270" fill="#8fa7bd" font-size="10" text-anchor="middle">anchor truth grafted verbatim</text>

  <rect x="480" y="216" width="182" height="72" rx="4" fill="#0d0f0c" stroke="#c8ff3d"/>
  <text x="571" y="238" fill="#c8ff3d" font-size="12" text-anchor="middle" font-weight="700">CORRECTNESS GATE</text>
  <text x="571" y="255" fill="#9d9a91" font-size="10" text-anchor="middle">23 named invariants</text>
  <text x="571" y="270" fill="#9d9a91" font-size="10" text-anchor="middle">deterministic · pre-display</text>

  <rect x="702" y="216" width="164" height="72" rx="4" fill="#0d0f0c" stroke="#3a3f33"/>
  <text x="784" y="238" fill="#f4f1e8" font-size="12" text-anchor="middle" font-weight="700">SOL GATE</text>
  <text x="784" y="255" fill="#9d9a91" font-size="10" text-anchor="middle">consistency review</text>
  <text x="784" y="270" fill="#9d9a91" font-size="10" text-anchor="middle">generated rounds only</text>

  <line x1="218" y1="252" x2="252" y2="252" stroke="#c8ff3d" stroke-width="1.5" marker-end="url(#arr)"/>
  <line x1="440" y1="252" x2="474" y2="252" stroke="#c8ff3d" stroke-width="1.5" marker-end="url(#arr)"/>
  <line x1="662" y1="252" x2="696" y2="252" stroke="#c8ff3d" stroke-width="1.5" marker-end="url(#arr)"/>

  <path d="M 784 288 L 784 306 L 133 306 L 133 288" fill="none" stroke="#ff6738" stroke-width="1.2" stroke-dasharray="4 4" marker-end="url(#arrdim)"/>
  <text x="458" y="301" fill="#ff6738" font-size="10" text-anchor="middle">any gate/model failure → serve the unchanged verified anchor, honestly labeled</text>

  <!-- grading path group -->
  <rect x="32" y="362" width="896" height="150" rx="6" fill="none" stroke="#465039"/>
  <text x="48" y="386" fill="#c8ff3d" font-size="11" font-weight="700" letter-spacing="2">GRADING PATH — THE CRIT IS THE PRODUCT</text>

  <rect x="48" y="402" width="170" height="72" rx="4" fill="#0d0f0c" stroke="#3a3f33"/>
  <text x="133" y="424" fill="#f4f1e8" font-size="12" text-anchor="middle" font-weight="700">PLAYER DECISION</text>
  <text x="133" y="441" fill="#9d9a91" font-size="10" text-anchor="middle">approve / sandbox / reject</text>
  <text x="133" y="456" fill="#9d9a91" font-size="10" text-anchor="middle">+ one line naming the tell</text>

  <rect x="258" y="402" width="182" height="72" rx="4" fill="#0d0f0c" stroke="#3a3f33"/>
  <text x="349" y="424" fill="#f4f1e8" font-size="12" text-anchor="middle" font-weight="700">DETERMINISTIC GRADE</text>
  <text x="349" y="441" fill="#9d9a91" font-size="10" text-anchor="middle">action + keyword tells</text>
  <text x="349" y="456" fill="#9d9a91" font-size="10" text-anchor="middle">+ sandbox policy score</text>

  <rect x="480" y="402" width="182" height="72" rx="4" fill="#0d0f0c" stroke="#3a3f33"/>
  <text x="571" y="424" fill="#f4f1e8" font-size="12" text-anchor="middle" font-weight="700">SOL TELL MATCH</text>
  <text x="571" y="441" fill="#9d9a91" font-size="10" text-anchor="middle">allowlisted tells only</text>
  <text x="571" y="456" fill="#9d9a91" font-size="10" text-anchor="middle">can widen, never rewrite</text>

  <rect x="702" y="402" width="164" height="72" rx="4" fill="#0d0f0c" stroke="#c8ff3d"/>
  <text x="784" y="424" fill="#c8ff3d" font-size="12" text-anchor="middle" font-weight="700">VERDICT</text>
  <text x="784" y="441" fill="#9d9a91" font-size="10" text-anchor="middle">receipts + tell debrief</text>
  <text x="784" y="456" fill="#9d9a91" font-size="10" text-anchor="middle">+ response_id provenance</text>

  <line x1="218" y1="438" x2="252" y2="438" stroke="#c8ff3d" stroke-width="1.5" marker-end="url(#arr)"/>
  <line x1="440" y1="438" x2="474" y2="438" stroke="#c8ff3d" stroke-width="1.5" marker-end="url(#arr)"/>
  <line x1="662" y1="438" x2="696" y2="438" stroke="#c8ff3d" stroke-width="1.5" marker-end="url(#arr)"/>

  <text x="480" y="537" fill="#5f6357" font-size="10" text-anchor="middle">nothing shown is ever executed · immutable ground truth lives server-side · deterministic bank fully usable without an API key</text>
</svg>
